<svg width="1900" height="1900" viewBox="0 0 1900 1900" fill="none" xmlns="http://www.w3.org/2000/svg">
<circle cx="950" cy="950" r="950" fill="#F7FFF7"/>
<path d="M515.784 805H479.784V447H515.784V606.5H709.284V447H744.784V805H709.284V640H515.784V805ZM841.823 496.5C827.823 496.5 816.323 485 816.323 471C816.323 457 827.823 445 841.823 445C855.823 445 867.823 457 867.823 471C867.823 485 855.823 496.5 841.823 496.5ZM824.823 805V563H859.323V805H824.823ZM967.268 805H932.768V440.5H967.268V805ZM1057.64 496.5C1043.64 496.5 1032.14 485 1032.14 471C1032.14 457 1043.64 445 1057.64 445C1071.64 445 1083.64 457 1083.64 471C1083.64 485 1071.64 496.5 1057.64 496.5ZM1040.64 805V563H1075.14V805H1040.64ZM1190.59 805H1154.59V447H1190.59V606.5H1384.09V447H1419.59V805H1384.09V640H1190.59V805ZM385.058 1480V1122H516.058C585.058 1122 627.558 1157 627.558 1214.5C627.558 1256.5 609.058 1285 572.058 1299.5C613.558 1313 634.558 1342 634.558 1386C634.558 1443.5 591.558 1480 523.558 1480H385.058ZM515.558 1154H421.058V1285H520.058C565.058 1285 590.558 1260 590.558 1217.5C590.558 1177.5 563.558 1154 515.558 1154ZM523.558 1316.5H421.058V1447.5H523.558C570.558 1447.5 598.058 1423 598.058 1381.5C598.058 1341 570.058 1316.5 523.558 1316.5ZM728.011 1480H693.511V1115.5H728.011V1480ZM784.386 1359C784.386 1285 836.386 1231.5 907.386 1231.5C978.386 1231.5 1030.39 1285 1030.39 1359C1030.39 1432.5 978.386 1486 907.386 1486C836.386 1486 784.386 1432.5 784.386 1359ZM819.386 1358.5C819.386 1415.5 855.386 1455 907.386 1455C958.886 1455 995.386 1415.5 995.386 1358.5C995.386 1302.5 958.886 1262.5 907.386 1262.5C855.386 1262.5 819.386 1302.5 819.386 1358.5ZM1069.07 1352C1069.07 1286 1111.57 1231.5 1182.57 1231.5C1224.57 1231.5 1256.57 1251 1272.07 1286.5L1275.57 1238H1305.57V1472.5C1305.57 1544.5 1259.57 1591.5 1188.57 1591.5C1126.57 1591.5 1083.07 1556.5 1073.57 1498H1108.07C1115.57 1537 1145.57 1560 1189.07 1560C1238.57 1560 1271.57 1526.5 1271.57 1476V1418.5C1255.07 1452.5 1221.57 1472.5 1180.07 1472.5C1111.07 1472.5 1069.07 1418 1069.07 1352ZM1103.57 1351.5C1103.57 1401 1134.07 1441.5 1185.07 1441.5C1237.57 1441.5 1268.57 1403.5 1268.57 1351.5C1268.57 1300 1238.57 1262 1185.57 1262C1133.57 1262 1103.57 1302.5 1103.57 1351.5ZM1357.06 1412H1390.06C1390.06 1440 1411.06 1457.5 1445.06 1457.5C1482.56 1457.5 1504.56 1441.5 1504.56 1415.5C1504.56 1395.5 1494.56 1384 1466.06 1377L1424.56 1366.5C1382.56 1356 1362.06 1334 1362.06 1301C1362.06 1258.5 1397.56 1231.5 1449.56 1231.5C1500.56 1231.5 1533.56 1259.5 1535.06 1304.5H1501.56C1500.56 1276.5 1481.06 1260 1448.56 1260C1414.56 1260 1395.56 1274.5 1395.56 1300.5C1395.56 1319 1408.56 1332 1435.06 1338.5L1476.56 1349C1518.56 1359.5 1537.56 1379 1537.56 1414C1537.56 1457.5 1500.56 1486 1445.56 1486C1391.06 1486 1357.06 1457 1357.06 1412Z" fill="#4ECDC4"/>
</svg>
